<svg id="Group_697" data-name="Group 697" xmlns="http://www.w3.org/2000/svg" xmlns:xlink="http://www.w3.org/1999/xlink" width="60.562" height="50" viewBox="0 0 60.562 50">
  <defs>
    <clipPath id="clip-path">
      <rect id="Rectangle_209" data-name="Rectangle 209" width="60.562" height="50" fill="none"/>
    </clipPath>
  </defs>
  <g id="Group_696" data-name="Group 696" clip-path="url(#clip-path)">
    <path id="Path_1060" data-name="Path 1060" d="M60.428,36.259,50.611,2.4A3.328,3.328,0,0,0,46.493.132L19.02,8.1H3.324A3.328,3.328,0,0,0,0,11.422V46.676A3.328,3.328,0,0,0,3.324,50H32.015a3.328,3.328,0,0,0,3.308-3l22.839-6.621a3.323,3.323,0,0,0,2.266-4.118M33.251,46.676a1.237,1.237,0,0,1-1.235,1.235H3.324a1.237,1.237,0,0,1-1.236-1.235V11.422a1.237,1.237,0,0,1,1.236-1.236H32.015a1.237,1.237,0,0,1,1.235,1.236ZM35.339,20.3v-.014a2.187,2.187,0,0,1,3.54-1.011Zm4.38.729.16.557-4.167,1.208-.16-.557ZM36.955,28.58,36.5,27.01a.977.977,0,0,0-1.161-.655V24.92l7.242-2.1A8.676,8.676,0,0,0,45.1,24.384l.665,2.292c1.692,6.9-6.266,10.37-10.429,6.54v-3.69a.969.969,0,0,0,1.616-.945m8.91-6.014-.042.012a3.809,3.809,0,0,1-.922-.442l1.9-.55c.092.28.186.56.272.856a3.569,3.569,0,0,0-1.206.124M41.726,21.06l-.381-1.319a4.1,4.1,0,0,0-6.006-2.36V14.186a9.873,9.873,0,0,1,6.528.139,9.311,9.311,0,0,1,4.692,5.333ZM58.318,37.78a1.22,1.22,0,0,1-.738.59L35.339,44.819V35.6a8.4,8.4,0,0,0,12.587-6.532,3.426,3.426,0,0,0,1.439-5.477c-.225-.94-.477-1.848-.755-2.691a.968.968,0,0,0,.169-.924c-1.746-4.92-4.661-7.8-9.3-8.192h0a13.949,13.949,0,0,0-4.135.558v-.915A3.328,3.328,0,0,0,32.015,8.1h-5.5L47.075,2.139a1.236,1.236,0,0,1,1.53.842L58.423,36.84a1.229,1.229,0,0,1-.1.94M47.13,24.4a1.47,1.47,0,0,1,.684,2.522c-.091-.553-.534-1.962-.684-2.522" transform="translate(0 0)"/>
    <path id="Path_1061" data-name="Path 1061" d="M238.7,142.625a.965.965,0,0,0,1.854-.538l-.455-1.571a.965.965,0,0,0-1.854.538Z" transform="translate(-196.747 -115.493)"/>
    <path id="Path_1062" data-name="Path 1062" d="M221.877,169.024a.948.948,0,0,0-1.222-.994c-.377.168-.481.175-.69.8a1.071,1.071,0,0,1-1.4.419.964.964,0,1,0-1.49,1.224c1.348,1.631,4.6.653,4.805-1.452" transform="translate(-179.098 -138.75)"/>
    <path id="Path_1063" data-name="Path 1063" d="M78.056,171.1a.965.965,0,0,0-1.931,0v1.59a.965.965,0,0,0,1.931,0Z" transform="translate(-62.876 -140.531)"/>
    <path id="Path_1064" data-name="Path 1064" d="M116.83,173.707a.97.97,0,0,0,.965-.954v-1.59a.965.965,0,0,0-1.931,0v1.59a.962.962,0,0,0,.965.954" transform="translate(-95.699 -140.585)"/>
    <path id="Path_1065" data-name="Path 1065" d="M53.624,111.944a3.447,3.447,0,0,0-.113-2.431c.727-3.759.466-6.871-.775-9.278l-.015-.026a9.557,9.557,0,0,0-1.651-2.248h0A9.437,9.437,0,0,0,47.826,95.9l-.026-.01-.023-.008a15.74,15.74,0,0,0-10.033.253h0c-.2.092-.4.19-.586.293l-.019.011a8.727,8.727,0,0,0-3.792,4l0,0c-1.141,2.379-1.373,5.425-.685,9.084a3.3,3.3,0,0,0-.113,2.419c-.965.931-2.34,3.078-1.522,7.4a.98.98,0,0,0,1.238.75,7.816,7.816,0,0,0,4.441-3.771,8.146,8.146,0,0,0,12.777,0,7.821,7.821,0,0,0,4.429,3.771.966.966,0,0,0,1.238-.738c.829-4.338-.545-6.474-1.522-7.416m-20.886,5.838c-.215-2.408.432-3.657.943-4.259a3.253,3.253,0,0,0,1.579.659,4.522,4.522,0,0,1-2.521,3.6m2.227-8.109c.01.545-.012,1.919.044,2.442a1.408,1.408,0,0,1-.044-2.442m14.286,1.692c-.341,8.143-12,8.132-12.334,0v-2.249a18.308,18.308,0,0,0,6.167-5.281,18.414,18.414,0,0,0,6.167,5.281Zm1.192-3.816a16.29,16.29,0,0,1-6.485-5.963.994.994,0,0,0-1.7,0,16.272,16.272,0,0,1-6.485,5.963,3.3,3.3,0,0,0-1.431.3c-.772-6.133,1.476-10.687,8.768-10.88,7.291.193,9.517,4.736,8.768,10.88a3.551,3.551,0,0,0-1.431-.3m.738,2.124a1.4,1.4,0,0,1-.034,2.442c.057-.511.023-1.908.034-2.442m2.249,8.109a4.556,4.556,0,0,1-2.533-3.6,3.335,3.335,0,0,0,1.59-.647c.522.579,1.181,1.84.943,4.248" transform="translate(-25.418 -78.618)"/>
    <path id="Path_1066" data-name="Path 1066" d="M90.227,196.257a1.061,1.061,0,0,1-1.34,0,.976.976,0,0,0-1.783.011c-.363.931.84,2.169,2.453,2.158,1.863.068,3.43-1.908,1.919-2.669a.964.964,0,0,0-1.249.5" transform="translate(-71.89 -161.624)"/>
  </g>
</svg>
