<svg xmlns="http://www.w3.org/2000/svg" xmlns:xlink="http://www.w3.org/1999/xlink" width="122.129" height="120" viewBox="0 0 122.129 120">
  <defs>
    <clipPath id="clip-path">
      <rect id="Rectangle_386" data-name="Rectangle 386" width="122.129" height="120" fill="none"/>
    </clipPath>
  </defs>
  <g id="Group_1077" data-name="Group 1077" transform="translate(0 0.001)">
    <g id="Group_1076" data-name="Group 1076" transform="translate(0 -0.001)" clip-path="url(#clip-path)">
      <path id="Path_2506" data-name="Path 2506" d="M59.589,123.376c7,2.237,11.96,2.753,20.665,10.44,14.889,10.955,30.309-1.035,20.78-16.588-11.606-15.539-1.539-26.193,5.838-31.186,5.6-4.2,9.079-13.464,2.44-19.516-7.518-6.853-20.613-3.833-27.954-6.377-16.12-5.591-15.237-18.032-27.029-16.842-11.692,2.077-8.534,10.87-13.761,29.786C37.691,84.418,14.4,92.456,26.289,113.54c8.18,9.8,22.72,6.46,33.3,9.837" transform="translate(-13.956 -26.306)" fill="#dcf0fa"/>
      <path id="Path_2507" data-name="Path 2507" d="M104.243,127.906c.938-2.825-1.848-5.643-3.927-6.77-3.127-1.692-6.349-3.075-8.881-.624-2.287,2.211-7.108,3.734-9.648,4.276-.345.074-.7.138-1.06.191l-.012,0c-.855.132-1.751.211-2.643.259l-.095,0c-1.443.071-2.822.164-4,.2a14.432,14.432,0,0,1-3.241-.27l-.649-.128c-3.456-.533-3.177-.409-5.571,2.2-1.595,1.749-3.3,5.32-1.492,7.686,1.384,1.807,6.351,8.295,7.555,10.589l.009.016a11.179,11.179,0,0,1,1.1,3.225,18.6,18.6,0,0,1-.3,7.567c-1.129,5.517-1.666,4.7-3.74,8.642-2.839,5.4,12.476,11.22,15.775,7.972,2.373-2.337,4.382-4.022,6.809-4.334,2.133-.274,3.935.251,6.353,2.2,3.834,3.09,15.248-6.649,12.957-10.146a53.6,53.6,0,0,1-4.655-7.752,28.733,28.733,0,0,1-2.626-17.052,53.792,53.792,0,0,1,1.987-7.956" transform="translate(-37.878 -72.531)" fill="#28a7e0"/>
      <path id="Path_2508" data-name="Path 2508" d="M129.02,91.768a8.2,8.2,0,0,1,2.757-4.72c2.926-2.473,4.741-4.985,8.266-10.508,4.29-6.721,8-12.5,12.46-12.364s6.7,3.1,6.943,6.162-1.789,7-6.408,11.75-6.1,6.954-8.2,12.16c-1.476,3.645-5.124,5.569-8.194,6.27a6.259,6.259,0,0,1-4.693-1.065,6.849,6.849,0,0,1-3.045-7.074Z" transform="translate(-78.37 -39.053)" fill="#28a7e0"/>
      <path id="Path_2509" data-name="Path 2509" d="M46.845,124.052a176.671,176.671,0,0,1-19.723-6.871c-7.293-2.987-13.936-6.677-16.911-1.92-1.306,2.089-.928,3.369.132,5.234,1.442,2.54,4.569,4.467,10.748,8.086,5.714,3.347,12.787,8.069,17.664,13.9,2.524,3.016,10.854-.988,12.321-7.751,1.379-6.357-2.411-10.226-4.231-10.678" transform="translate(-5.708 -68.753)" fill="#28a7e0"/>
      <path id="Path_2510" data-name="Path 2510" d="M61.443,219.993c-2.68,3.94-4.338,7.267-8.23,12.735-4.709,6.617-5.018,13.216-1.066,16.4a6.259,6.259,0,0,0,6.107.636c2.423-1.029,5.567-3.827,9.445-9,3.587-4.786,7.073-10.323,12.8-14.094,2.961-1.951-.8-10.2-6.7-12.238-5.549-1.913-11.4,4.166-12.356,5.568" transform="translate(-30.07 -130.265)" fill="#28a7e0"/>
      <path id="Path_2511" data-name="Path 2511" d="M154.115,213.565c2.283,2.943,3.877,6.279,6.394,9.818,3.679,5.173,5.571,9.375,1.123,13.071-1.34,1.112-5.041,2.54-7.737.725-1.707-1.149-3.732-4.07-8.164-8.516-3.3-3.31-6.783-5.232-7.425-6.538-1.223-2.487.281-9.713,4.744-11.685,5.046-2.228,10.253,2.077,11.065,3.124" transform="translate(-83.918 -127.681)" fill="#28a7e0"/>
      <path id="Path_2512" data-name="Path 2512" d="M92.15,52.316a16.6,16.6,0,0,1-.882,5.325c-3.168.915-7.432,1.712-10.53.432-3.411-1.395-4.08-2.608-5.017-2.331-1.6.476-.7,2.471-.7,2.471.316.626,1.656,2.928,6.666,3.379a16.275,16.275,0,0,0,8.566-1.677,15.652,15.652,0,0,1-29.424-7.481C60.8,43.742,68.093,36.4,76.426,35.386c2.585-.324,6.928-.655,9.083.475.121.508-.386,1.057-.7,1.765-.972,2.2.712,2.46,2.955,4.841,3.023,2.845,4.362,5.347,4.382,9.849" transform="translate(-37.022 -21.346)" fill="#28a7e0"/>
      <path id="Path_2513" data-name="Path 2513" d="M31.187,72.825a1.909,1.909,0,1,0,0-2.646,1.909,1.909,0,0,0,0,2.646" transform="translate(-18.655 -42.351)" fill="#dcf0fa"/>
      <path id="Path_2514" data-name="Path 2514" d="M31.187,267.256a1.909,1.909,0,1,0,0-2.646,1.909,1.909,0,0,0,0,2.646" transform="translate(-18.655 -160.674)" fill="#dcf0fa"/>
      <path id="Path_2515" data-name="Path 2515" d="M238.564,191.963a1.909,1.909,0,1,0,0-2.646,1.909,1.909,0,0,0,0,2.646" transform="translate(-144.856 -114.854)" fill="#dcf0fa"/>
      <path id="Path_2516" data-name="Path 2516" d="M7.22,163.067H5.351V161.2a1.161,1.161,0,0,0-2.322,0v1.869H1.161a1.161,1.161,0,1,0,0,2.322H3.029v1.868a1.161,1.161,0,1,0,2.322,0v-1.868H7.22a1.161,1.161,0,1,0,0-2.322" transform="translate(0 -97.392)" fill="#dcf0fa"/>
      <path id="Path_2517" data-name="Path 2517" d="M252.78,224.583h-1.869v-1.869a1.161,1.161,0,0,0-2.322,0v1.869h-1.868a1.161,1.161,0,1,0,0,2.322h1.868v1.868a1.161,1.161,0,0,0,2.322,0V226.9h1.869a1.161,1.161,0,1,0,0-2.322" transform="translate(-149.438 -134.828)" fill="#dcf0fa"/>
      <path id="Path_2518" data-name="Path 2518" d="M244.9,5.388l-1.086.64a26.962,26.962,0,0,0-12.529,17.206,1.962,1.962,0,0,0,3.829.857,22.992,22.992,0,0,1,7.914-12.72,10.626,10.626,0,0,0,4.5,7.123A7.262,7.262,0,1,0,255.293,6.22a10.508,10.508,0,0,0-3.93-1.359,8.487,8.487,0,0,1,8.439.416,1.962,1.962,0,0,0,2.186-3.26c-.029-.02-.058-.038-.083-.053a12.5,12.5,0,0,0-17,3.422m4.731,9.791a6.39,6.39,0,0,1-2.758-4.783c0-.014,0-.029,0-.043a1.6,1.6,0,0,1,.222-.728,3.165,3.165,0,0,1,2.669-.965,6.742,6.742,0,0,1,3.43.875h0a3.338,3.338,0,1,1-3.565,5.644" transform="translate(-140.728 0)" fill="#dcf0fa"/>
    </g>
  </g>
</svg>
