<svg id="Group_323" data-name="Group 323" xmlns="http://www.w3.org/2000/svg" xmlns:xlink="http://www.w3.org/1999/xlink" width="68.712" height="60.66" viewBox="0 0 68.712 60.66">
  <defs>
    <clipPath id="clip-path">
      <rect id="Rectangle_68" data-name="Rectangle 68" width="68.712" height="60.66" fill="none"/>
    </clipPath>
  </defs>
  <g id="Group_322" data-name="Group 322" clip-path="url(#clip-path)">
    <path id="Path_288" data-name="Path 288" d="M9.1,54.21c.764-2.529,5.021-8.135,6.669-10.873,1.52-2.53,1.932-7.98.584-9.561s-4.285-4.426-11.4-8.447c-6.6-3.734-5.3-6.534-3.474-7.617,2.36-1.4,7.5,1.837,12.041,3.508s7.833,1.234,11.562.194,6.162-5.065,7.826-7.535a47.46,47.46,0,0,1,4.021-5.714c2.215-2.426,6.131-2.153,7.114,1.235s-3.209,6.724-5.969,10.171c-2.658,3.32-3.594,8.108-3.684,10.773a17,17,0,0,0,1.438,7.25c.989,2.53,4.83,7.566,7.211,11.9s-3.348,7.227-5.729,4.924-5.459-6.73-8.424-7.317-5.59,2.893-7.342,5.016-5.508,8.309-8.923,8.535q-.135.009-.265.009c-3.195,0-4-3.987-3.258-6.45M11.513,9.867c0-4.962,4.181-9.123,8.939-9.7,1.481-.179,3.956-.361,5.192.288.067.3-.224.6-.412,1.009-.569,1.25.4,1.4,1.675,2.777a6.8,6.8,0,0,1,2.484,5.626,9.007,9.007,0,0,1-.522,3.03c-1.806.523-4.247.957-6,.224-1.943-.812-2.325-1.493-2.853-1.344-.909.259-.4,1.4-.4,1.4.18.361.928,1.682,3.793,1.942a9.225,9.225,0,0,0,4.887-.934A8.931,8.931,0,0,1,11.513,9.868Z" transform="translate(0 0)" fill="#009cdd"/>
    <path id="Path_289" data-name="Path 289" d="M206.436,91.332a13.426,13.426,0,0,0-13.411-13.411h-2.29a13.464,13.464,0,0,0-3.261.4l-3.28-3.278a1.162,1.162,0,0,0-1.983.822v5.114a13.577,13.577,0,0,0-3.43,4.268,13.267,13.267,0,0,0-1.457,6.085,13.426,13.426,0,0,0,13.411,13.411h2.291a13.426,13.426,0,0,0,13.411-13.411" transform="translate(-137.724 -58.02)" fill="#009cdd"/>
    <path id="Path_290" data-name="Path 290" d="M195.834,138.127v-3h3.076v3a.793.793,0,0,0,.792.792h.25a.793.793,0,0,0,.792-.792v-7.44a.793.793,0,0,0-.792-.792h-.25a.793.793,0,0,0-.792.792v2.962h-3.076v-2.962a.793.793,0,0,0-.792-.792h-.25a.793.793,0,0,0-.792.792v7.44a.793.793,0,0,0,.792.792h.25a.793.793,0,0,0,.792-.792" transform="translate(-150.676 -100.887)" fill="#fff"/>
    <path id="Path_291" data-name="Path 291" d="M229.952,138.92h3.4a.793.793,0,0,0,.792-.792v-.061a.793.793,0,0,0-.792-.792h-2.359v-2.1h1.621a.792.792,0,0,0,0-1.584h-1.621v-2.053h2.359a.793.793,0,0,0,.792-.792v-.061a.793.793,0,0,0-.792-.792h-3.4a.793.793,0,0,0-.792.792v7.44a.793.793,0,0,0,.792.792" transform="translate(-177.984 -100.888)" fill="#fff"/>
    <path id="Path_292" data-name="Path 292" d="M255.669,138.98h.006a4.791,4.791,0,0,0,.6.037,2.6,2.6,0,0,0,1.163-.246,2.257,2.257,0,0,0,.822-.691,3.108,3.108,0,0,0,.488-1.064,5.478,5.478,0,0,0,.161-1.374v-4.956a.793.793,0,0,0-.792-.792h-.24a.793.793,0,0,0-.792.792v5a4.011,4.011,0,0,1-.063.772,1.441,1.441,0,0,1-.186.5.7.7,0,0,1-.309.27,1.117,1.117,0,0,1-.442.081,1.261,1.261,0,0,1-.311-.033.955.955,0,0,0-.227-.034.386.386,0,0,0-.286.1.412.412,0,0,0-.114.272l-.049.634a.671.671,0,0,0,.576.725m.009-.02Z" transform="translate(-198.125 -100.887)" fill="#fff"/>
    <path id="Path_293" data-name="Path 293" d="M283.637,161.142a.927.927,0,0,0-.926.926v.292a.926.926,0,1,0,1.853,0v-.292a.927.927,0,0,0-.926-.926" transform="translate(-219.576 -125.156)" fill="#fff"/>
    <path id="Path_294" data-name="Path 294" d="M283.637,129.9a.927.927,0,0,0-.926.926v4.331a.926.926,0,1,0,1.853,0v-4.331a.927.927,0,0,0-.926-.926" transform="translate(-219.576 -100.888)" fill="#fff"/>
  </g>
</svg>
